<svg xmlns="http://www.w3.org/2000/svg" viewBox="0 0 96 96" role="img" aria-labelledby="title desc">
  <title id="title">Thomas Basham Portfolio</title>
  <desc id="desc">Monogram favicon for Thomas Basham's portfolio.</desc>
  <defs>
    <linearGradient id="bg" x1="0%" x2="100%" y1="0%" y2="100%">
      <stop offset="0%" stop-color="#284c58" />
      <stop offset="100%" stop-color="#13242a" />
    </linearGradient>
  </defs>
  <rect width="96" height="96" rx="24" fill="url(#bg)" />
  <circle cx="48" cy="48" r="33" fill="none" stroke="#f4dca9" stroke-opacity="0.85" stroke-width="4" />
  <path d="M29 30h38v8H53v31h-10V38H29z" fill="#f7f1e3" />
  <path d="M61 30c11 0 17 5 17 13 0 5-3 9-9 11 5 2 8 6 8 11 0 10-8 16-20 16h-9v-8h8c7 0 11-3 11-8 0-5-4-8-11-8h-5v-8h5c6 0 10-2 10-7 0-4-3-6-9-6h-8v-6z" fill="#f4dca9" />
</svg>
